<mxfile host="Electron" modified="2023-06-04T20:39:40.368Z" agent="Mozilla/5.0 (X11; Linux x86_64) AppleWebKit/537.36 (KHTML, like Gecko) draw.io/21.2.8 Chrome/112.0.5615.165 Electron/24.2.0 Safari/537.36" etag="RJAoy9Bz0BvdRAhgqknA" version="21.2.8" type="device">
  <diagram id="C5RBs43oDa-KdzZeNtuy" name="Page-1">
    <mxGraphModel dx="660" dy="1174" grid="1" gridSize="10" guides="1" tooltips="1" connect="1" arrows="1" fold="1" page="1" pageScale="1" pageWidth="827" pageHeight="1169" math="0" shadow="0">
      <root>
        <mxCell id="WIyWlLk6GJQsqaUBKTNV-0" />
        <mxCell id="WIyWlLk6GJQsqaUBKTNV-1" parent="WIyWlLk6GJQsqaUBKTNV-0" />
        <mxCell id="mNMCnv1YMO1-HXRnA7h4-2" value="L1" style="edgeStyle=orthogonalEdgeStyle;rounded=0;orthogonalLoop=1;jettySize=auto;html=1;" edge="1" parent="WIyWlLk6GJQsqaUBKTNV-1" source="mNMCnv1YMO1-HXRnA7h4-0" target="mNMCnv1YMO1-HXRnA7h4-1">
          <mxGeometry relative="1" as="geometry" />
        </mxCell>
        <mxCell id="mNMCnv1YMO1-HXRnA7h4-0" value="signo (x:float) -&amp;gt; int:&lt;br&gt;" style="rounded=0;whiteSpace=wrap;html=1;fillColor=#fff2cc;strokeColor=#d6b656;" vertex="1" parent="WIyWlLk6GJQsqaUBKTNV-1">
          <mxGeometry x="351" y="42" width="150" height="80" as="geometry" />
        </mxCell>
        <mxCell id="mNMCnv1YMO1-HXRnA7h4-4" value="L2" style="edgeStyle=orthogonalEdgeStyle;rounded=0;orthogonalLoop=1;jettySize=auto;html=1;" edge="1" parent="WIyWlLk6GJQsqaUBKTNV-1" source="mNMCnv1YMO1-HXRnA7h4-1" target="mNMCnv1YMO1-HXRnA7h4-3">
          <mxGeometry relative="1" as="geometry" />
        </mxCell>
        <mxCell id="mNMCnv1YMO1-HXRnA7h4-1" value="result = 0" style="whiteSpace=wrap;html=1;rounded=0;fillColor=#d5e8d4;strokeColor=#82b366;" vertex="1" parent="WIyWlLk6GJQsqaUBKTNV-1">
          <mxGeometry x="366" y="212" width="120" height="60" as="geometry" />
        </mxCell>
        <mxCell id="mNMCnv1YMO1-HXRnA7h4-5" value="FALSE" style="edgeStyle=orthogonalEdgeStyle;rounded=0;orthogonalLoop=1;jettySize=auto;html=1;exitX=1;exitY=0.5;exitDx=0;exitDy=0;" edge="1" parent="WIyWlLk6GJQsqaUBKTNV-1" source="mNMCnv1YMO1-HXRnA7h4-3" target="mNMCnv1YMO1-HXRnA7h4-6">
          <mxGeometry relative="1" as="geometry">
            <mxPoint x="551" y="442" as="targetPoint" />
          </mxGeometry>
        </mxCell>
        <mxCell id="mNMCnv1YMO1-HXRnA7h4-17" value="L4" style="edgeLabel;html=1;align=center;verticalAlign=middle;resizable=0;points=[];" vertex="1" connectable="0" parent="mNMCnv1YMO1-HXRnA7h4-5">
          <mxGeometry x="0.5543" relative="1" as="geometry">
            <mxPoint as="offset" />
          </mxGeometry>
        </mxCell>
        <mxCell id="mNMCnv1YMO1-HXRnA7h4-7" style="edgeStyle=orthogonalEdgeStyle;rounded=0;orthogonalLoop=1;jettySize=auto;html=1;exitX=0;exitY=0.5;exitDx=0;exitDy=0;" edge="1" parent="WIyWlLk6GJQsqaUBKTNV-1" source="mNMCnv1YMO1-HXRnA7h4-3" target="mNMCnv1YMO1-HXRnA7h4-8">
          <mxGeometry relative="1" as="geometry">
            <mxPoint x="311" y="432" as="targetPoint" />
          </mxGeometry>
        </mxCell>
        <mxCell id="mNMCnv1YMO1-HXRnA7h4-9" value="TRUE" style="edgeLabel;html=1;align=center;verticalAlign=middle;resizable=0;points=[];" vertex="1" connectable="0" parent="mNMCnv1YMO1-HXRnA7h4-7">
          <mxGeometry x="-0.1818" y="2" relative="1" as="geometry">
            <mxPoint as="offset" />
          </mxGeometry>
        </mxCell>
        <mxCell id="mNMCnv1YMO1-HXRnA7h4-16" value="L3" style="edgeLabel;html=1;align=center;verticalAlign=middle;resizable=0;points=[];" vertex="1" connectable="0" parent="mNMCnv1YMO1-HXRnA7h4-7">
          <mxGeometry x="0.4938" relative="1" as="geometry">
            <mxPoint as="offset" />
          </mxGeometry>
        </mxCell>
        <mxCell id="mNMCnv1YMO1-HXRnA7h4-3" value="if x &amp;lt; 0" style="whiteSpace=wrap;html=1;rounded=0;fillColor=#d5e8d4;strokeColor=#82b366;" vertex="1" parent="WIyWlLk6GJQsqaUBKTNV-1">
          <mxGeometry x="366" y="352" width="120" height="60" as="geometry" />
        </mxCell>
        <mxCell id="mNMCnv1YMO1-HXRnA7h4-11" value="TRUE" style="edgeStyle=orthogonalEdgeStyle;rounded=0;orthogonalLoop=1;jettySize=auto;html=1;exitX=0.75;exitY=1;exitDx=0;exitDy=0;" edge="1" parent="WIyWlLk6GJQsqaUBKTNV-1" source="mNMCnv1YMO1-HXRnA7h4-6" target="mNMCnv1YMO1-HXRnA7h4-10">
          <mxGeometry relative="1" as="geometry">
            <Array as="points">
              <mxPoint x="641" y="502" />
              <mxPoint x="641" y="502" />
            </Array>
          </mxGeometry>
        </mxCell>
        <mxCell id="mNMCnv1YMO1-HXRnA7h4-19" value="L6" style="edgeLabel;html=1;align=center;verticalAlign=middle;resizable=0;points=[];" vertex="1" connectable="0" parent="mNMCnv1YMO1-HXRnA7h4-11">
          <mxGeometry x="-0.7762" y="1" relative="1" as="geometry">
            <mxPoint as="offset" />
          </mxGeometry>
        </mxCell>
        <mxCell id="mNMCnv1YMO1-HXRnA7h4-12" value="FALSE" style="edgeStyle=orthogonalEdgeStyle;rounded=0;orthogonalLoop=1;jettySize=auto;html=1;exitX=0.25;exitY=1;exitDx=0;exitDy=0;" edge="1" parent="WIyWlLk6GJQsqaUBKTNV-1" source="mNMCnv1YMO1-HXRnA7h4-6" target="mNMCnv1YMO1-HXRnA7h4-13">
          <mxGeometry relative="1" as="geometry">
            <mxPoint x="516" y="552" as="targetPoint" />
          </mxGeometry>
        </mxCell>
        <mxCell id="mNMCnv1YMO1-HXRnA7h4-18" value="L7" style="edgeLabel;html=1;align=center;verticalAlign=middle;resizable=0;points=[];" vertex="1" connectable="0" parent="mNMCnv1YMO1-HXRnA7h4-12">
          <mxGeometry x="-0.5826" y="2" relative="1" as="geometry">
            <mxPoint as="offset" />
          </mxGeometry>
        </mxCell>
        <mxCell id="mNMCnv1YMO1-HXRnA7h4-6" value="elif ( x &amp;gt; 0 )" style="rounded=1;whiteSpace=wrap;html=1;fillColor=#d5e8d4;strokeColor=#82b366;" vertex="1" parent="WIyWlLk6GJQsqaUBKTNV-1">
          <mxGeometry x="551" y="432" width="120" height="60" as="geometry" />
        </mxCell>
        <mxCell id="mNMCnv1YMO1-HXRnA7h4-15" style="edgeStyle=orthogonalEdgeStyle;rounded=0;orthogonalLoop=1;jettySize=auto;html=1;exitX=0.5;exitY=1;exitDx=0;exitDy=0;entryX=0;entryY=0.5;entryDx=0;entryDy=0;" edge="1" parent="WIyWlLk6GJQsqaUBKTNV-1" source="mNMCnv1YMO1-HXRnA7h4-8" target="mNMCnv1YMO1-HXRnA7h4-13">
          <mxGeometry relative="1" as="geometry" />
        </mxCell>
        <mxCell id="mNMCnv1YMO1-HXRnA7h4-20" value="L5" style="edgeLabel;html=1;align=center;verticalAlign=middle;resizable=0;points=[];" vertex="1" connectable="0" parent="mNMCnv1YMO1-HXRnA7h4-15">
          <mxGeometry x="-0.6046" y="-1" relative="1" as="geometry">
            <mxPoint as="offset" />
          </mxGeometry>
        </mxCell>
        <mxCell id="mNMCnv1YMO1-HXRnA7h4-8" value="result = -1" style="rounded=1;whiteSpace=wrap;html=1;fillColor=#d5e8d4;strokeColor=#82b366;" vertex="1" parent="WIyWlLk6GJQsqaUBKTNV-1">
          <mxGeometry x="194" y="432" width="120" height="60" as="geometry" />
        </mxCell>
        <mxCell id="mNMCnv1YMO1-HXRnA7h4-14" style="edgeStyle=orthogonalEdgeStyle;rounded=0;orthogonalLoop=1;jettySize=auto;html=1;exitX=0;exitY=0.5;exitDx=0;exitDy=0;" edge="1" parent="WIyWlLk6GJQsqaUBKTNV-1" source="mNMCnv1YMO1-HXRnA7h4-10" target="mNMCnv1YMO1-HXRnA7h4-13">
          <mxGeometry relative="1" as="geometry" />
        </mxCell>
        <mxCell id="mNMCnv1YMO1-HXRnA7h4-21" value="L8" style="edgeLabel;html=1;align=center;verticalAlign=middle;resizable=0;points=[];" vertex="1" connectable="0" parent="mNMCnv1YMO1-HXRnA7h4-14">
          <mxGeometry x="-0.1717" relative="1" as="geometry">
            <mxPoint as="offset" />
          </mxGeometry>
        </mxCell>
        <mxCell id="mNMCnv1YMO1-HXRnA7h4-10" value="result = 1" style="whiteSpace=wrap;html=1;rounded=1;fillColor=#d5e8d4;strokeColor=#82b366;" vertex="1" parent="WIyWlLk6GJQsqaUBKTNV-1">
          <mxGeometry x="581" y="562" width="120" height="60" as="geometry" />
        </mxCell>
        <mxCell id="mNMCnv1YMO1-HXRnA7h4-13" value="return result" style="rounded=1;whiteSpace=wrap;html=1;fillColor=#d5e8d4;strokeColor=#82b366;" vertex="1" parent="WIyWlLk6GJQsqaUBKTNV-1">
          <mxGeometry x="361" y="562" width="120" height="60" as="geometry" />
        </mxCell>
        <mxCell id="mNMCnv1YMO1-HXRnA7h4-23" value="&lt;h1&gt;Ejercicio 2:&lt;/h1&gt;&lt;div&gt;&lt;br&gt;&lt;/div&gt;" style="text;html=1;strokeColor=none;fillColor=none;spacing=5;spacingTop=-20;whiteSpace=wrap;overflow=hidden;rounded=0;" vertex="1" parent="WIyWlLk6GJQsqaUBKTNV-1">
          <mxGeometry x="157" y="644" width="190" height="120" as="geometry" />
        </mxCell>
        <mxCell id="mNMCnv1YMO1-HXRnA7h4-78" value="" style="shape=table;startSize=0;container=1;collapsible=0;childLayout=tableLayout;" vertex="1" parent="WIyWlLk6GJQsqaUBKTNV-1">
          <mxGeometry x="167" y="694" width="180" height="160" as="geometry" />
        </mxCell>
        <mxCell id="mNMCnv1YMO1-HXRnA7h4-79" value="" style="shape=tableRow;horizontal=0;startSize=0;swimlaneHead=0;swimlaneBody=0;strokeColor=inherit;top=0;left=0;bottom=0;right=0;collapsible=0;dropTarget=0;fillColor=none;points=[[0,0.5],[1,0.5]];portConstraint=eastwest;" vertex="1" parent="mNMCnv1YMO1-HXRnA7h4-78">
          <mxGeometry width="180" height="40" as="geometry" />
        </mxCell>
        <mxCell id="mNMCnv1YMO1-HXRnA7h4-80" value="" style="shape=partialRectangle;html=1;whiteSpace=wrap;connectable=0;strokeColor=inherit;overflow=hidden;fillColor=none;top=0;left=0;bottom=0;right=0;pointerEvents=1;" vertex="1" parent="mNMCnv1YMO1-HXRnA7h4-79">
          <mxGeometry width="60" height="40" as="geometry">
            <mxRectangle width="60" height="40" as="alternateBounds" />
          </mxGeometry>
        </mxCell>
        <mxCell id="mNMCnv1YMO1-HXRnA7h4-81" value="X" style="shape=partialRectangle;html=1;whiteSpace=wrap;connectable=0;strokeColor=inherit;overflow=hidden;fillColor=none;top=0;left=0;bottom=0;right=0;pointerEvents=1;" vertex="1" parent="mNMCnv1YMO1-HXRnA7h4-79">
          <mxGeometry x="60" width="60" height="40" as="geometry">
            <mxRectangle width="60" height="40" as="alternateBounds" />
          </mxGeometry>
        </mxCell>
        <mxCell id="mNMCnv1YMO1-HXRnA7h4-82" value="res" style="shape=partialRectangle;html=1;whiteSpace=wrap;connectable=0;strokeColor=inherit;overflow=hidden;fillColor=none;top=0;left=0;bottom=0;right=0;pointerEvents=1;" vertex="1" parent="mNMCnv1YMO1-HXRnA7h4-79">
          <mxGeometry x="120" width="60" height="40" as="geometry">
            <mxRectangle width="60" height="40" as="alternateBounds" />
          </mxGeometry>
        </mxCell>
        <mxCell id="mNMCnv1YMO1-HXRnA7h4-83" value="" style="shape=tableRow;horizontal=0;startSize=0;swimlaneHead=0;swimlaneBody=0;strokeColor=inherit;top=0;left=0;bottom=0;right=0;collapsible=0;dropTarget=0;fillColor=none;points=[[0,0.5],[1,0.5]];portConstraint=eastwest;" vertex="1" parent="mNMCnv1YMO1-HXRnA7h4-78">
          <mxGeometry y="40" width="180" height="40" as="geometry" />
        </mxCell>
        <mxCell id="mNMCnv1YMO1-HXRnA7h4-84" value="testXmin" style="shape=partialRectangle;html=1;whiteSpace=wrap;connectable=0;strokeColor=inherit;overflow=hidden;fillColor=none;top=0;left=0;bottom=0;right=0;pointerEvents=1;" vertex="1" parent="mNMCnv1YMO1-HXRnA7h4-83">
          <mxGeometry width="60" height="40" as="geometry">
            <mxRectangle width="60" height="40" as="alternateBounds" />
          </mxGeometry>
        </mxCell>
        <mxCell id="mNMCnv1YMO1-HXRnA7h4-85" value="-10" style="shape=partialRectangle;html=1;whiteSpace=wrap;connectable=0;strokeColor=inherit;overflow=hidden;fillColor=none;top=0;left=0;bottom=0;right=0;pointerEvents=1;" vertex="1" parent="mNMCnv1YMO1-HXRnA7h4-83">
          <mxGeometry x="60" width="60" height="40" as="geometry">
            <mxRectangle width="60" height="40" as="alternateBounds" />
          </mxGeometry>
        </mxCell>
        <mxCell id="mNMCnv1YMO1-HXRnA7h4-86" value="-1" style="shape=partialRectangle;html=1;whiteSpace=wrap;connectable=0;strokeColor=inherit;overflow=hidden;fillColor=none;top=0;left=0;bottom=0;right=0;pointerEvents=1;" vertex="1" parent="mNMCnv1YMO1-HXRnA7h4-83">
          <mxGeometry x="120" width="60" height="40" as="geometry">
            <mxRectangle width="60" height="40" as="alternateBounds" />
          </mxGeometry>
        </mxCell>
        <mxCell id="mNMCnv1YMO1-HXRnA7h4-87" value="" style="shape=tableRow;horizontal=0;startSize=0;swimlaneHead=0;swimlaneBody=0;strokeColor=inherit;top=0;left=0;bottom=0;right=0;collapsible=0;dropTarget=0;fillColor=none;points=[[0,0.5],[1,0.5]];portConstraint=eastwest;" vertex="1" parent="mNMCnv1YMO1-HXRnA7h4-78">
          <mxGeometry y="80" width="180" height="40" as="geometry" />
        </mxCell>
        <mxCell id="mNMCnv1YMO1-HXRnA7h4-88" value="testXmax" style="shape=partialRectangle;html=1;whiteSpace=wrap;connectable=0;strokeColor=inherit;overflow=hidden;fillColor=none;top=0;left=0;bottom=0;right=0;pointerEvents=1;" vertex="1" parent="mNMCnv1YMO1-HXRnA7h4-87">
          <mxGeometry width="60" height="40" as="geometry">
            <mxRectangle width="60" height="40" as="alternateBounds" />
          </mxGeometry>
        </mxCell>
        <mxCell id="mNMCnv1YMO1-HXRnA7h4-89" value="20" style="shape=partialRectangle;html=1;whiteSpace=wrap;connectable=0;strokeColor=inherit;overflow=hidden;fillColor=none;top=0;left=0;bottom=0;right=0;pointerEvents=1;" vertex="1" parent="mNMCnv1YMO1-HXRnA7h4-87">
          <mxGeometry x="60" width="60" height="40" as="geometry">
            <mxRectangle width="60" height="40" as="alternateBounds" />
          </mxGeometry>
        </mxCell>
        <mxCell id="mNMCnv1YMO1-HXRnA7h4-90" value="1" style="shape=partialRectangle;html=1;whiteSpace=wrap;connectable=0;strokeColor=inherit;overflow=hidden;fillColor=none;top=0;left=0;bottom=0;right=0;pointerEvents=1;" vertex="1" parent="mNMCnv1YMO1-HXRnA7h4-87">
          <mxGeometry x="120" width="60" height="40" as="geometry">
            <mxRectangle width="60" height="40" as="alternateBounds" />
          </mxGeometry>
        </mxCell>
        <mxCell id="mNMCnv1YMO1-HXRnA7h4-91" value="" style="shape=tableRow;horizontal=0;startSize=0;swimlaneHead=0;swimlaneBody=0;strokeColor=inherit;top=0;left=0;bottom=0;right=0;collapsible=0;dropTarget=0;fillColor=none;points=[[0,0.5],[1,0.5]];portConstraint=eastwest;" vertex="1" parent="mNMCnv1YMO1-HXRnA7h4-78">
          <mxGeometry y="120" width="180" height="40" as="geometry" />
        </mxCell>
        <mxCell id="mNMCnv1YMO1-HXRnA7h4-92" value="testXeq" style="shape=partialRectangle;html=1;whiteSpace=wrap;connectable=0;strokeColor=inherit;overflow=hidden;fillColor=none;top=0;left=0;bottom=0;right=0;pointerEvents=1;" vertex="1" parent="mNMCnv1YMO1-HXRnA7h4-91">
          <mxGeometry width="60" height="40" as="geometry">
            <mxRectangle width="60" height="40" as="alternateBounds" />
          </mxGeometry>
        </mxCell>
        <mxCell id="mNMCnv1YMO1-HXRnA7h4-93" value="0" style="shape=partialRectangle;html=1;whiteSpace=wrap;connectable=0;strokeColor=inherit;overflow=hidden;fillColor=none;top=0;left=0;bottom=0;right=0;pointerEvents=1;" vertex="1" parent="mNMCnv1YMO1-HXRnA7h4-91">
          <mxGeometry x="60" width="60" height="40" as="geometry">
            <mxRectangle width="60" height="40" as="alternateBounds" />
          </mxGeometry>
        </mxCell>
        <mxCell id="mNMCnv1YMO1-HXRnA7h4-94" value="0" style="shape=partialRectangle;html=1;whiteSpace=wrap;connectable=0;strokeColor=inherit;overflow=hidden;fillColor=none;top=0;left=0;bottom=0;right=0;pointerEvents=1;" vertex="1" parent="mNMCnv1YMO1-HXRnA7h4-91">
          <mxGeometry x="120" width="60" height="40" as="geometry">
            <mxRectangle width="60" height="40" as="alternateBounds" />
          </mxGeometry>
        </mxCell>
        <mxCell id="mNMCnv1YMO1-HXRnA7h4-95" value="&lt;h1&gt;Ejercicio 3:&lt;/h1&gt;&lt;div&gt;Si, efectivamente. Atravieza todas las branches del programa&lt;/div&gt;" style="text;html=1;strokeColor=none;fillColor=none;spacing=5;spacingTop=-20;whiteSpace=wrap;overflow=hidden;rounded=0;" vertex="1" parent="WIyWlLk6GJQsqaUBKTNV-1">
          <mxGeometry x="366" y="644" width="190" height="120" as="geometry" />
        </mxCell>
      </root>
    </mxGraphModel>
  </diagram>
</mxfile>
